<?xml version="1.0" encoding="UTF-8" standalone="no"?>
<svg
   xmlns:dc="http://purl.org/dc/elements/1.1/"
   xmlns:cc="http://creativecommons.org/ns#"
   xmlns:rdf="http://www.w3.org/1999/02/22-rdf-syntax-ns#"
   xmlns:svg="http://www.w3.org/2000/svg"
   xmlns="http://www.w3.org/2000/svg"
   id="svg983"
   viewBox="0 0 40.314987 47.471077"
   version="1.1"
   height="179.41824"
   width="152.37161">
  <defs
     id="defs987" />
  <metadata
     id="metadata921">
    <rdf:RDF>
      <cc:Work
         rdf:about="">
        <dc:format>image/svg+xml</dc:format>
        <dc:type
           rdf:resource="http://purl.org/dc/dcmitype/StillImage" />
        <dc:title></dc:title>
      </cc:Work>
    </rdf:RDF>
  </metadata>
  <g
     id="g981"
     transform="translate(-27.711708,-75.808923)">
    <path
       style="fill:#1e81af"
       id="path923"
       d="m 33.482,123.28 c 2.2498,-6.5481 5.7111,-12.695 11.768,-12.562 6.0572,0.13363 11.531,0.86549 15.641,8.6862 1.8172,3.4578 1.6225,3.7084 1.6225,3.7084 z" />
    <g
       style="shape-rendering:auto"
       id="g929"
       transform="translate(26.335,0.0066277)">
      <ellipse
         id="ellipse925"
         style="color:#000000;isolation:auto;mix-blend-mode:normal;solid-color:#000000;fill:#d4b841;color-rendering:auto;image-rendering:auto"
         ry="0.90078998"
         rx="0.91671997"
         cy="102.29"
         cx="34.209999" />
      <ellipse
         id="ellipse927"
         style="color:#000000;isolation:auto;mix-blend-mode:normal;solid-color:#000000;fill:#f7f6f5;color-rendering:auto;image-rendering:auto"
         ry="0.60010999"
         rx="0.59097999"
         cy="102.09"
         cx="34.084999" />
    </g>
    <path
       style="fill:#ecc2ad;fill-opacity:1"
       id="path931"
       d="m 184.61,323.87 c -0.37881,0 -21.214,2.1468 -22.855,3.2832 -1.6415,1.1364 -30.178,24.623 -30.178,24.623 l 0.3789,29.547 c 0,9.3439 -2.3983,21.087 18.184,31.693 5.5381,2.854 9.5732,4.3837 12.738,5.1309 3.9255,4.2572 7.3673,5.5174 17.842,5.0898 17.5,-0.7143 16.786,1.4286 17.857,0 0.74094,-0.98791 6.0873,-2.3194 8.0195,-4.6992 6.045,-2.2576 13.214,-7.2045 15.01,-12.592 2.7779,-8.3338 10.86,-20.708 9.4707,-36.365 -1.389,-15.657 -9.2168,-38.387 -9.2168,-38.387 0,0 -36.871,-7.3242 -37.25,-7.3242 z"
       transform="scale(0.26458)" />
    <g
       style="shape-rendering:auto"
       id="g937"
       transform="translate(0.16704,1.7038)">
      <circle
         id="circle933"
         style="color:#000000;isolation:auto;mix-blend-mode:normal;solid-color:#000000;fill:#ffffff;color-rendering:auto;image-rendering:auto"
         r="2.5985"
         cy="96.382004"
         cx="41.541" />
      <circle
         id="circle935"
         style="color:#000000;isolation:auto;mix-blend-mode:normal;solid-color:#000000;fill:#333333;color-rendering:auto;image-rendering:auto"
         r="1.0053999"
         cy="96.691002"
         cx="41.073002" />
    </g>
    <g
       style="shape-rendering:auto"
       id="g943"
       transform="matrix(-1,0,0,1,95.196,1.3016)">
      <circle
         id="circle939"
         style="color:#000000;isolation:auto;mix-blend-mode:normal;solid-color:#000000;fill:#ffffff;color-rendering:auto;image-rendering:auto"
         r="2.5985"
         cy="96.382004"
         cx="41.541" />
      <ellipse
         id="ellipse941"
         style="color:#000000;isolation:auto;mix-blend-mode:normal;solid-color:#000000;fill:#333333;color-rendering:auto;image-rendering:auto"
         ry="1.277"
         rx="1.2179"
         cy="96.833"
         cx="41.084999" />
    </g>
    <g
       style="shape-rendering:auto"
       id="g951"
       transform="translate(-0.13363,-0.13363)">
      <circle
         id="circle945"
         style="color:#000000;isolation:auto;mix-blend-mode:normal;solid-color:#000000;fill:#b6dfe8;color-rendering:auto;image-rendering:auto"
         r="1.7874"
         cy="101.11"
         cx="44.18" />
      <circle
         id="circle947"
         style="color:#000000;isolation:auto;mix-blend-mode:normal;solid-color:#000000;fill:#b6dfe8;color-rendering:auto;image-rendering:auto"
         r="1.7874"
         cy="100.99"
         cx="51.483002" />
      <path
         id="path949"
         style="color:#000000;isolation:auto;mix-blend-mode:normal;solid-color:#000000;fill:#707070;color-rendering:auto;image-rendering:auto"
         d="m 166.49,374.38 a 7.3868,7.3868 0 0 0 -7.3848,7.3887 7.3868,7.3868 0 0 0 7.3848,7.3848 7.3868,7.3868 0 0 0 7.3867,-7.3398 c 0.0406,-0.0187 0.24805,-0.10937 0.24805,-0.10937 1.4503,-2.538 8.5604,-4.4847 12.711,-0.99414 a 7.3868,7.3868 0 0 0 -0.084,1.0586 7.3868,7.3868 0 0 0 7.3867,7.3848 7.3868,7.3868 0 0 0 7.3867,-7.3848 7.3868,7.3868 0 0 0 -7.3867,-7.3887 7.3868,7.3868 0 0 0 -6.8848,4.7129 c -0.58255,-0.49253 -2.6789,-2.0804 -5.9219,-2.2168 -2.1848,-0.0919 -4.8474,0.52655 -7.8066,2.6465 a 7.3868,7.3868 0 0 0 -7.0352,-5.1426 z m 0,1.4766 a 5.9094,5.9094 0 0 1 5.9102,5.9121 5.9094,5.9094 0 0 1 -5.9102,5.9082 5.9094,5.9094 0 0 1 -5.9082,-5.9082 5.9094,5.9094 0 0 1 5.9082,-5.9121 z m 27.648,0.002 a 5.9094,5.9094 0 0 1 5.9102,5.9102 5.9094,5.9094 0 0 1 -5.9102,5.9082 5.9094,5.9094 0 0 1 -5.9102,-5.9082 5.9094,5.9094 0 0 1 5.9102,-5.9102 z"
         transform="scale(0.26458)" />
    </g>
    <path
       style="fill:#eea48a"
       id="path953"
       d="m 45.636,102.93 c 0.33409,0.70159 1.6704,1.1359 2.372,1.0357 0.70158,-0.10022 1.7038,-0.7684 1.5368,-1.1693 -0.16704,-0.40091 -0.56795,-1.4032 -1.637,-1.3029 -1.0691,0.10022 -1.6704,0.20045 -2.2718,1.4366 z" />
    <path
       style="fill:#f0ad95"
       id="path955"
       d="m 42.83,94.158 c 1.4366,1.1176 3.7418,2.7613 5.3788,2.2863 1.637,-0.47499 3.9756,-2.1466 4.3097,-2.5377 0.33409,-0.39117 0.73499,-0.6147 0.26727,-0.08382 -0.46772,0.53087 -3.1404,2.9338 -4.6772,3.1014 -1.5368,0.16764 -2.5391,-0.1397 -3.6081,-1.1735 -1.0691,-1.0338 -1.6704,-1.5926 -1.6704,-1.5926 z" />
    <path
       id="path957"
       style="color:#000000;isolation:auto;mix-blend-mode:normal;solid-color:#000000;fill:#2c001e;color-rendering:auto;image-rendering:auto;shape-rendering:auto"
       d="m 40.384,105.71 c 0.22986,-0.0808 0.46807,-0.15478 0.71249,-0.21649 0.07529,-0.019 0.1523,-0.0351 0.22846,-0.0527 0.44888,-0.0928 0.9135,-0.15429 1.3825,-0.1886 0.12013,-0.009 0.24074,-0.0147 0.36111,-0.022 1.0982,-0.049 2.2003,-0.0507 3.3008,-0.0539 1.1756,-0.003 2.3512,0.008 3.5266,0.0212 0.16409,0.002 0.32821,0.003 0.49229,0.006 1.0399,0.0154 -0.7432,-0.004 0.71763,0.0108 0.11385,0.001 0.66546,0.006 0.78952,0.009 0.16802,0.004 0.3359,0.009 0.50385,0.0137 0.42891,0.018 0.87142,0.0342 1.2772,0.133 0.05664,0.0138 0.11061,0.0316 0.16592,0.0474 0.2484,0.0785 0.48062,0.17525 0.73325,0.24852 0.19519,0.06 0.40427,0.10025 0.61343,0.13583 0.08814,0.0115 0.17562,0.022 0.2596,0.0429 0.02829,0.01 -0.18742,0.26294 -0.21571,0.25329 -0.08544,5e-4 -0.17134,-0.0116 -0.25548,-0.0189 -0.24484,-0.0339 -0.48519,-0.0819 -0.7111,-0.15127 -0.23014,-0.079 -0.45112,-0.17209 -0.69959,-0.22658 -0.17053,-0.03 -0.34214,-0.0539 -0.51864,-0.0657 -0.27184,-0.0182 -0.54541,-0.01 -0.81803,-0.0166 -0.83884,0.012 -1.6778,0.0195 -2.5167,0.0285 -1.1806,0.0125 -2.3615,0.0201 -3.5422,0.009 -0.34527,-0.003 -0.85275,-0.008 -1.2001,-0.0146 -0.12327,-0.003 -0.24636,-0.008 -0.36962,-0.0107 -0.4478,-0.01 -0.89601,-0.0148 -1.3441,-0.016 -0.25472,0.004 -0.4039,0.003 -0.65361,0.0171 -0.33528,0.0195 -0.66724,0.0624 -0.99146,0.11889 -0.33412,0.0689 -0.66252,0.14855 -0.99962,0.21138 -0.02812,0.0103 -0.2567,-0.24153 -0.22857,-0.25176 z" />
    <path
       id="path959"
       style="color:#000000;isolation:auto;mix-blend-mode:normal;solid-color:#000000;fill:#2c001e;color-rendering:auto;image-rendering:auto;shape-rendering:auto"
       d="m 40.23,107.19 c -0.46588,-0.77162 -0.07434,-1.5063 0.63002,-1.8431 -0.24655,0.62321 -0.66841,0.94815 -0.63002,1.8431 z" />
    <path
       id="path961"
       style="color:#000000;isolation:auto;mix-blend-mode:normal;solid-color:#000000;fill:#2c001e;color-rendering:auto;image-rendering:auto;shape-rendering:auto"
       d="m 55.697,105.87 c 0.26412,1.2291 0.12567,0.43189 0.07624,1.1115 -0.02429,-0.0694 -0.05031,-0.13732 -0.09097,-0.19939 -0.09642,-0.19598 -0.1951,-0.39083 -0.29342,-0.58585 -0.09295,-0.17994 -0.07158,-0.27213 -0.22496,-0.3934 -0.24466,-0.2136 -0.69531,-0.42596 -0.896,-0.68238 0.5276,0.35002 1.023,0.46435 1.4291,0.74955 z" />
    <path
       style="fill:#d7d3cf"
       id="path963"
       d="m 39.215,77.133 c -3.9813,-0.01401 -6.0717,3.4868 -6.2932,4.7418 -0.19924,1.129 -0.67415,3.0039 -0.21962,4.7408 -10.256,5.2011 -2.3815,16.46 3.0039,13.746 l 1.279,-9.3209 c 0,0 1.8751,-3.2152 1.4619,-4.8814 4.0036,-2.4609 8.5956,-6.1123 4.5573,-8.0615 -1.4118,-0.68148 -2.6747,-0.96088 -3.7894,-0.9648 z" />
    <path
       style="fill:#e8b59c"
       id="path965"
       d="m 36.123,92.15 c -0.35108,0.2887 -1.2754,1.0475 -1.2754,1.0475 l 0.10025,7.8176 c 0,2.4722 -0.63454,5.5792 4.8111,8.3855 1.4653,0.75513 2.5329,1.1599 3.3703,1.3575 0.71207,0.77225 1.3641,1.1716 2.5967,1.31 -0.31639,-0.40418 -0.70855,-0.9134 -0.86868,-1.1803 -0.2506,-0.41766 -0.16728,-0.75223 -3.1745,-2.0888 -3.0072,-1.3365 -4.0097,-2.5892 -4.7615,-4.0928 -0.6547,-1.3094 -0.86509,-8.3787 -0.7984,-12.556 z" />
    <path
       style="fill:#e7e5e2"
       id="path967"
       d="m 184.24,286.53 c -4.6465,0.0885 -9.445,1.12 -14.244,3.1289 -4.6852,1.9612 -8.0682,4.6558 -10.465,7.5117 -2.3096,-1.7005 -4.3538,-2.7046 -5.6074,-2.5117 -4.6429,0.71429 -33.57,3.5714 -25.355,35 -9.2857,1.7857 -20.716,11.428 -19.645,24.643 1.0714,13.214 10.716,27.144 19.645,28.93 8.9286,1.7857 15.713,-14.285 15.713,-14.285 0,0 6.4288,-10.716 2.8574,-17.145 -3.5714,-6.429 -0.51055,-0.13626 2.0898,0.56054 2.6004,0.69677 8.981,3.7263 17.195,-6.6308 3.6806,-4.6407 5.7058,-8.9928 6.7949,-13.156 7.7028,5.3311 20.267,8.5306 26.391,5.4902 3.1331,8.3405 9.1034,12.885 17.172,12.309 1.0445,-0.0746 2.0867,-0.21513 3.1211,-0.38867 -2.1797,6.8261 -2.8425,15.868 3.3086,22.531 8.5714,9.2857 18.927,8.5711 21.07,7.1426 2.1429,-1.4286 20.359,-17.5 9.2871,-30.357 -5.4266,-6.3018 -10.078,-10.275 -14.002,-12.574 2.601,-10.813 4.2627,-33.787 -25.619,-32.217 -0.61308,-1.8466 -1.548,-3.6027 -2.8789,-5.209 -7.1205,-8.5938 -16.606,-12.966 -26.828,-12.771 z"
       transform="scale(0.26458)" />
    <path
       style="fill:#f7f6f5"
       id="path969"
       d="m 38.642,113.61 c 0,0 12.237,2.2679 13.584,2.3624 1.347,0.0945 3.0594,-0.66146 2.937,-1.5119 -0.12238,-0.85045 0.12237,-1.6064 -1.958,-1.8899 -2.0804,-0.28348 -8.1991,-0.37798 -9.6676,-1.0394 -1.4685,-0.66145 -2.5699,-0.28348 -3.3041,0.37798 -0.73424,0.66146 -1.5909,1.7009 -1.5909,1.7009 z" />
    <g
       style="shape-rendering:auto"
       id="g975"
       transform="translate(0,0.13363)">
      <ellipse
         id="ellipse971"
         style="color:#000000;isolation:auto;mix-blend-mode:normal;solid-color:#000000;fill:#d4b841;color-rendering:auto;image-rendering:auto"
         ry="0.90078998"
         rx="0.91671997"
         cy="102.29"
         cx="34.209999" />
      <ellipse
         id="ellipse973"
         style="color:#000000;isolation:auto;mix-blend-mode:normal;solid-color:#000000;fill:#f7f6f5;color-rendering:auto;image-rendering:auto"
         ry="0.60010999"
         rx="0.59097999"
         cy="102.09"
         cx="34.084999" />
    </g>
    <path
       style="fill:#ebebeb"
       id="path977"
       d="m 42.644,100.92 c 0.06265,0.13574 0.59517,0.0522 0.56385,-0.0836 -0.03132,-0.13574 0.02088,-0.67871 0.43855,-0.81445 0.41767,-0.13573 0.41766,-0.2506 0.27148,-0.34457 -0.69672,-0.15851 -1.1824,0.4825 -1.2739,1.2426 z" />
    <path
       style="fill:#ebebeb"
       id="path979"
       d="m 50.223,101.08 c 0.06265,0.13574 0.59517,0.0522 0.56385,-0.0836 -0.03132,-0.13574 0.02088,-0.6787 0.43855,-0.81444 0.41767,-0.13573 0.41766,-0.2506 0.27148,-0.34457 -0.69672,-0.15851 -1.1824,0.4825 -1.2739,1.2426 z" />
  </g>
</svg>
